/* XPM */
static char *collect1701431891[] = {
/* columns rows colors chars-per-pixel */
"32 32 165 2 ",
"   c #775828",
".  c #6B624E",
"X  c #686553",
"o  c #6A7D78",
"O  c #92691F",
"+  c #937012",
"@  c #A46403",
"#  c #AD6A02",
"$  c #A56909",
"%  c #AD7403",
"&  c #AC7A00",
"*  c #AA710F",
"=  c #BA7400",
"-  c #B27D00",
";  c #8C6F28",
":  c #846834",
">  c #836C3D",
",  c #857439",
"<  c #8B723E",
"1  c #C47800",
"2  c #967840",
"3  c #BE8202",
"4  c #C48C02",
"5  c #CB8900",
"6  c #D58500",
"7  c #DC8600",
"8  c #D88B00",
"9  c #D59200",
"0  c #E08B00",
"q  c #E39A00",
"w  c #F39400",
"e  c #F3A300",
"r  c #FCAF00",
"t  c #ECB00D",
"y  c #FFBB00",
"u  c #878557",
"i  c #687981",
"p  c #6E8794",
"a  c #6E8995",
"s  c #6B8998",
"d  c #698EA5",
"f  c #6C90A5",
"g  c #769CAD",
"h  c #7D9EB4",
"j  c #6CA6B7",
"k  c #78A4BC",
"l  c #67ABC2",
"z  c #3BF4FB",
"x  c #7EC3E9",
"c  c #7DDBF4",
"v  c #55F5FA",
"b  c #7AE4EC",
"n  c #71E9F1",
"m  c #79E9F0",
"M  c #6AF5FE",
"N  c #82938D",
"B  c #869996",
"V  c #89A4AE",
"C  c #8EACAF",
"Z  c #94ABA7",
"A  c #80A1B0",
"S  c #91AEB4",
"D  c #8BB1BC",
"F  c #80A8C2",
"G  c #8DB4CE",
"H  c #84BADA",
"J  c #8CBEDD",
"K  c #8CBEE6",
"L  c #92BFE9",
"P  c #8AC2DC",
"I  c #94C3D5",
"U  c #9DCAD7",
"Y  c #96C7DE",
"T  c #97C9DB",
"R  c #9ECEDD",
"E  c #A0CCD6",
"W  c #A1CFDB",
"Q  c #A6D3D7",
"!  c #A5D3DB",
"~  c #A9D7DB",
"^  c #ACDADD",
"/  c #B3DFDE",
"(  c #B6E3DE",
")  c #B8E5DF",
"_  c #BBE9DF",
"`  c #87C4E7",
"'  c #81C3EF",
"]  c #89CBEA",
"[  c #95C7E1",
"{  c #96CEE7",
"}  c #9CCCE7",
"|  c #9AC6EA",
" . c #95CCEB",
".. c #9CCCEB",
"X. c #8DD3E7",
"o. c #86D5EA",
"O. c #8EDBEF",
"+. c #94D3E3",
"@. c #9DD1E2",
"#. c #9DDBE7",
"$. c #96D2ED",
"%. c #9BD1EB",
"&. c #95DCEC",
"*. c #81C7F3",
"=. c #8CCBF2",
"-. c #97C7F0",
";. c #97CEF3",
":. c #9ECCF2",
">. c #8ADAF3",
",. c #9CD0F2",
"<. c #90DDF0",
"1. c #96DCFD",
"2. c #9ED8F9",
"3. c #A1CFE0",
"4. c #A2CEEC",
"5. c #A4D4E3",
"6. c #A9D7E2",
"7. c #A6DAE4",
"8. c #ACDBE3",
"9. c #A4D2EC",
"0. c #ABD5EE",
"q. c #A6DAEE",
"w. c #AEDAEC",
"e. c #B2DEE5",
"r. c #B9DFE7",
"t. c #B2DDEA",
"y. c #B8DFE9",
"u. c #A4CDF3",
"i. c #A9CEF3",
"p. c #A7D1F1",
"a. c #A9D2F1",
"s. c #ABDAF6",
"d. c #B2DDF4",
"f. c #B4DCF9",
"g. c #8AE7EB",
"h. c #83E9EB",
"j. c #9DEBE7",
"k. c #96E3EC",
"l. c #9CE1ED",
"z. c #96EAE8",
"x. c #9CEDE9",
"c. c #87EDFF",
"v. c #8DF0FC",
"b. c #A5E2E5",
"n. c #ABE3E7",
"m. c #A0EBE6",
"M. c #ABECE5",
"N. c #AEE0EB",
"B. c #B5E3E4",
"V. c #B9E6E4",
"C. c #B0EAE3",
"Z. c #BDEBE3",
"A. c #B4E1E8",
"S. c #B9E5E9",
"D. c #BCE9EC",
"F. c #AEE3F5",
"G. c #B3E2F3",
"H. c #B9E4F3",
"J. c #B6E4FA",
"K. c #B8E7FB",
"L. c #C0EEE3",
"P. c #C0EDE8",
"I. c #C2F1E3",
"U. c #C8F6E3",
"Y. c #CCFBE5",
/* pixels */
"Z.Z._ Z.Z.Z.B.V.V.B.A.A.A.t.t.w.t.w.t.w.d.w.0.0.a.i.a.i.i.u.u.u.",
"I.L.L.Z.Z.Z.V.V.S.B.S.A.B.y.A.w.t.w.w.w.0.0.0.a.a.0.p.9.p.u.u.u.",
"_ _ _ ^ V.V.V.V.V.A.B.y.A.t.t.A.t.w.w.w.w.0.0.0.a.a.a.i.u.u.u.u.",
"L.I.~ Q ^ Z.V.V.V.k.m S.A.t.t.w.w.t.t.w.d.0.0.a.a.a.i.a.u.u.u.u.",
"Z.) U W C.V.V.V.V.n.&.A.B.t.A.w.t.w.w.w.w.0.0.a.s.p.p.p.p.u.u.u.",
"I.Q ) I.Z.V.V.B.V.N.5.V.A.A.t.A.t.t.w.w.w.0.0.0.a.p.p.p.u.u.u.u.",
"U.~ ) Z.V.V.B.H 8.8.@.S.t.t.t.w.t.t.s.w.0.0.0.a.a.a.p.u.i.u.u.u.",
"I Q Z.Z.Z.V.! ! V.6.5.A.A.A.t.t.w.w.w.w.w.0.0.0.a.a.s.u.i.u.u.u.",
"T ~ _ _ Z.~ 8.D.n.} B.B.A.t.t.t.t.t.0.0.0.0.0.0.a.a.p.p.p.u.u.u.",
"Y.~ _ Z.Z.~ V.B.W B.S.A.B.t.t.t.w.H.K.K.J.0.0.a.a.a.p.p.i.u.u.u.",
"Q ! B.Z.V.6.B.^ e.A.B.A.A.t.t.t.d.A p a g 0.0.0.a.a.a.p.u.u.u.u.",
"P Q _ Z.Z.6.B.8.e.x B.A.A.t.B.H.B # 7 9 - N s.0.0.p.p.i.u.u.u.u.",
"Y.~ C.Z.Z.^ B.^ B.A.A.A.A.r.D.F @ y 4 3 y & h f.a.p.p.p.p.u.u.u.",
"~ Q _ Z.Z.6.B.8.B.7.A.A.r.g.v.g = 9 s d 1 5 f 1.a.p.p.p.i.u.u.u.",
"P Q ( Z.Z.^ B.6.w.] A.A.r.n M j # q o i 6 5 d c.0.a.s.u.u.u.u.u.",
"U.( ~ Z.B.! V.5.V.V.B.A.y.7.F.G O r q q y * l 2.0.a.u.i.i.u.i.u.",
"Z._ ( Z.! V.8.^ V.V.V.A.V.A.` 2 8 ; $ % + V s.$.a.a.i.p.i.p.c ;.",
"Z.Z.B.^ ) X.+.Z.A.V.w.5.N.P < 7 u Y l k G d.q.$.a.a.a.9.i.;.v >.",
"Z.I.B.^ B.#.V.S.V.8.! D.T 2 0 u  .H.F.G.d.0.a...s.a.a.i.u.=.,.u.",
"I._ ~ ( B.Z.h.l.n.@.P.E . e e : I t.o.9.w.0.0...4.a.a.i.;.u.u.u.",
"_ Q _ ! B.M.z m 7.D.U > w r ,   S H.t.w.0.w.0.0.$.a.p. .:.u.u.u.",
"( _ ^ ^ Z.V.7.B.V.q.X w t @ . P 9.%.%.9.w.0.0.0.p.,...:.u.u.u.-.",
"_ ^ / Z.V.~ 6.6.5.7.C * + i Z w.w.w.0.} $.c 0.0.p.,...p.u.u.u.-.",
"^ _ Z._ ! C.V.e.C.B.q.C   D F.5.5.@.w.0.%.$.0.s.9.$.;.u.i.i.u.:.",
"h.x._ ! Z.) ! 6.6.6.@.{ U t.w.w.w.6.{ w.9.} 9.4.| 9. .i.;.*.4.=.",
"j.M.^ B.B.! V.V.V.P.{ ` B.w.y.t.t.w.} 0.%.0.|  .p. .u.a.;.' u.;.",
"h.m.) C.! V.V.V.B.e.r.S.P Y A.t.w.t.} 9.4.} 0.0...p.p.p.u.L :.:.",
"m.M.( ( 6.Z.V.8.! w.W w.6.0.S.t.t.t.t.$.9.9.4.4.4.p.p.p.u.L u.=.",
"b z./ B.^ Z.e.! V.V.B.8.6.t.l.k.&.&.>.0.} 4.4.4...K u.a.| L u.*.",
"j.M./ ( ~ ` ! 8.D.A.e.7.w.5.&.O.<.&.>.q.0.} [ | | K i.4.L u.L u.",
"b j./ ( ! Y R 8.V.B.A.3.6.w.@.%.%.%.$.{ 9.0.4.0.4.| | L u.L u.u.",
"b.C.( B.^ J R / S.B.V.e.5.6.0.7.9.5.5.4.9.4.4.4.4.4.| | L :.i.u."
};
