/* XPM */
static char *_e1c3c73556f4e11e1feb89c92d8412fazHln2zA9WlenL4K[] = {
/* columns rows colors chars-per-pixel */
"33 33 233 2 ",
"   c #3AAABB",
".  c #3CBFB7",
"X  c #3BB3BD",
"o  c #3CBBBB",
"O  c #468FB7",
"+  c #4998BB",
"@  c #44A4BF",
"#  c #46B7BE",
"$  c #3EC3BB",
"%  c #41C9BC",
"&  c #4ED6BD",
"*  c #4CDABA",
"=  c #54D9BA",
"-  c #5CD9BB",
";  c #7CC7AD",
":  c #7FD2AA",
">  c #75DBAD",
",  c #7CCEB4",
"<  c #63DBBB",
"1  c #68DAB8",
"2  c #7DD5B2",
"3  c #74DABD",
"4  c #7ADABA",
"5  c #75E0AC",
"6  c #7BE3AB",
"7  c #79E8B6",
"8  c #76F4B7",
"9  c #7CF4B3",
"0  c #3FAEC8",
"q  c #3CB5C3",
"w  c #3ABBC0",
"e  c #3CBDCC",
"r  c #3FBCD1",
"t  c #539BC8",
"y  c #5499D1",
"u  c #4AA3C4",
"i  c #41ACC2",
"p  c #48ADCA",
"a  c #47B4C9",
"s  c #53A6D1",
"d  c #55A7D6",
"f  c #44B6D5",
"g  c #44BAD7",
"h  c #4BB4DA",
"j  c #53B4D8",
"k  c #6CABD1",
"l  c #55ACE4",
"z  c #4CBAE9",
"x  c #51B5E9",
"c  c #61ABE1",
"v  c #3CC3C4",
"b  c #3DC4CA",
"n  c #3FCBC9",
"m  c #3EC6D3",
"M  c #3FCED5",
"N  c #3FD1D8",
"B  c #43CCC2",
"V  c #42C9CA",
"C  c #46D4C3",
"Z  c #4AD5C4",
"A  c #4DD9C4",
"S  c #45D2CB",
"D  c #49D5CC",
"F  c #4CDACC",
"G  c #54DAC3",
"H  c #5BDBC4",
"J  c #53DDCB",
"K  c #5CDCCB",
"L  c #41CBD8",
"P  c #45D4D2",
"I  c #4BDDD2",
"U  c #40D4DC",
"Y  c #43DCDC",
"T  c #64DAC6",
"R  c #6BDDC3",
"E  c #63DCCB",
"W  c #6CDECA",
"Q  c #7ED4C1",
"!  c #72DCC3",
"~  c #7ADCC7",
"^  c #74DFCB",
"/  c #75CFD3",
"(  c #5AE4CE",
")  c #4BE3DA",
"_  c #59E7D8",
"`  c #68E8C9",
"'  c #74E7CA",
"]  c #7BE0CA",
"[  c #6CF4C6",
"{  c #74F4C4",
"}  c #78F2C3",
"|  c #75F2CD",
" . c #7CF1CE",
".. c #64E5D3",
"X. c #6BE6D5",
"o. c #64EBD4",
"O. c #6EEBD5",
"+. c #66ECDC",
"@. c #6CEDDB",
"#. c #74E6D3",
"$. c #6AF3D7",
"%. c #71F2D1",
"&. c #72F3DB",
"*. c #4AC2EC",
"=. c #47CAE8",
"-. c #46CBEB",
";. c #43D8E8",
":. c #51D3EF",
">. c #45DCF2",
",. c #56DBF6",
"<. c #63DAF4",
"1. c #4AE4E3",
"2. c #49E4E6",
"3. c #53E9E2",
"4. c #5BEBE1",
"5. c #55E9E8",
"6. c #5FF0EB",
"7. c #4BE2F1",
"8. c #56E6F3",
"9. c #5DE3F6",
"0. c #65EEE3",
"q. c #6AF1E7",
"w. c #6BF3EB",
"e. c #71F4E7",
"r. c #67E8F4",
"t. c #64EBF4",
"y. c #6BF2F3",
"u. c #9EBF9F",
"i. c #9CBCA9",
"p. c #9EBDB0",
"a. c #BCACA6",
"s. c #A3BAAB",
"d. c #A5BAAA",
"f. c #BCB3AC",
"g. c #BBB8AE",
"h. c #ADBDB1",
"j. c #B7BDB4",
"k. c #CAA29C",
"l. c #C8A9A5",
"z. c #C4ACA9",
"x. c #C4B3AB",
"c. c #C8B8AD",
"v. c #C3B6B7",
"b. c #C2BCB2",
"n. c #CABEB1",
"m. c #96D19C",
"M. c #96C8A5",
"N. c #83D3AA",
"B. c #89D7AC",
"V. c #9ED4AC",
"C. c #97D9A8",
"Z. c #93DCAE",
"A. c #82C9B8",
"S. c #9BC3B5",
"D. c #9DC8B5",
"F. c #9BCBBC",
"G. c #97D6BB",
"H. c #A2C3AB",
"J. c #A9C4A8",
"K. c #A6CCAB",
"L. c #B2C4AD",
"P. c #B2C8AF",
"I. c #A8D9A9",
"U. c #B4D7AD",
"Y. c #A5CEB2",
"T. c #B4C3B3",
"R. c #BAC4B3",
"E. c #BDC5BB",
"W. c #B7CCB8",
"Q. c #A8D6B7",
"!. c #A2D6BB",
"~. c #B8D6B4",
"^. c #86E7A9",
"/. c #8CEAAB",
"(. c #9BEAA5",
"). c #9BE4AC",
"_. c #96E8A8",
"`. c #85F1AC",
"'. c #82E4B3",
"]. c #8CE4B3",
"[. c #87E8BA",
"{. c #95E5B4",
"}. c #A5E5A9",
"|. c #C5C4AD",
" X c #C4C4B3",
".X c #CCC6B3",
"XX c #CAC9B5",
"oX c #C3C6B9",
"OX c #C7CBBB",
"+X c #D1CEBA",
"@X c #C5D4B7",
"#X c #CDD2BB",
"$X c #85BDD4",
"%X c #87D9CA",
"&X c #9CD4C4",
"*X c #9DDBCA",
"=X c #8DCBD4",
"-X c #9CDBD9",
";X c #B8C7CC",
":X c #A5D9CB",
">X c #B7C7D3",
",X c #83EAC5",
"<X c #9BE3CC",
"1X c #96E8C8",
"2X c #87F2CD",
"3X c #8BEFD0",
"4X c #97E6D2",
"5X c #9AECD2",
"6X c #88F2D3",
"7X c #94F2D5",
"8X c #A4E2C4",
"9X c #A6E3D6",
"0X c #B4E8DF",
"qX c #85DCE4",
"wX c #97D6E9",
"eX c #9CD4EA",
"rX c #85D7F2",
"tX c #AFCBE2",
"yX c #A5CAEF",
"uX c #B0CDE1",
"iX c #A5D7E7",
"pX c #ACD4EE",
"aX c #B1DBE8",
"sX c #A3CCF4",
"dX c #A5CCF5",
"fX c #A6D1F2",
"gX c #A9D2F0",
"hX c #B6E4E5",
"jX c #B9E6E5",
"kX c #B9E6E7",
"lX c #BCEAE3",
"zX c #C1EDE4",
"xX c #C5F0E3",
/* pixels */
"lXlXlXlXjXjXjXhXhXjXjXjXaXiXiXeXeXeXiXpXpXpXpXgXgXgXfXdXdXdXsXsXsX",
"lXlXlXlXjXjXhXjXjXaX=Xk c l x z z *.=.:.<.rXfXpXgXfXfXdXdXdXsXsXsX",
"lXlXlXlXjXjXlXaX$Xy y d l x z *.*.=.>.>.>.,.<.rXfXgXfXdXdXdXsXsXsX",
"lXlXlXlXjXlX=Xk y s d l x z *.*.=.;.>.7.8.,.<.9.t.wXgXdXdXdXsXsXsX",
"lXlXlXjXlX$Xt s d d d l z *.*.=.;.;.7.7.8.9.t.t.t.6.qXgXdXdXsXsXsX",
"lXlXlXlXk O t s d d j z z *.=.=.;.2.7.8.9.t.t.y.w.+.( #.dXdXsXsXsX",
"lXlXzX=X+ + u s j h h h g =.=.;.;.2.5.8.t.t.y.w.+.o.` ` qXdXsXsXsX",
"lXzX-Xu u u u p h h f f g L L U ;.2.5.t.y.y.w.$.$.` ` ` [ wXdXsXsX",
"zXhXj p u u @ p f g f f g m U Y ) 3.6.y.w.e.&.%.[ [ [ ' | 3XsXsXsX",
"xX/ 0 a i i   0 a f r r m N Y 1.3.4.0.w.e.&.%.[ [ { |  .6X2X-XsXsX",
"0Xa i i i       q e e m M U 1.3.4.0.q.e.&.| { 8 8 }  .6X6X3X<XsXsX",
"=X  # q X X X X q e b m N Y 1.3.4.0.@.&.| } 8 8 8 ,X2X6X7X5X1XiXsX",
"/   X X X w w w w b b M Y 1.) 4.0.@.O.| } 9 8 9 [.2X3X7X7X5X8X:XsX",
"# o o o w v v v b b V U ) 3.4.0.0.@.%.} 8 9 9 [.[.1X7X5X5X<X8X:XsX",
"B o o . $ v n V S P P Y ) _ _ +.@.%.{ 8 9 9 `.].1X1X5X5X<X!.!.Q.sX",
"B $ $ . $ B S S P P P I ) _ ....O.' 8 9 9 `./.Z.G.<X<X<X*X!.Q.Q.yX",
"B $ % $ % B S D D D D F J K E ` ` 7 6 6 ^./._.C.G.*X*X*X!.!.Y.W.yX",
"Z B B % C Z A F I F F A J K T R 1 5 6 ^.^.^.C.M.F.&X&XF.Y.Y.Y.W.yX",
"Z C C C Z A J J J J F G K E R 1 > 6 './.^.m.M.M.S.F.F.D.Y.K.P.W.yX",
"A Z A & & G G J J J J G E W R 1 > 6 /._._.m.M.i.S.S.S.S.K.K.T.E.sX",
"H * & & = G - - K ( ( H T R 3 5 6 ^._.(.C.m.u.i.p.p.H.H.J.P.R.E.sX",
"] * = = - - < T .._ ( E R ! 7 7 './.(.(.I.J.d.s.s.s.s.J.L.R.|.;XsX",
"4X= - - < 1 1 R ..o...W ! 3 7 '.].).(.I.U.L.h.d.s.s.H.J.L.R.|.tXsX",
"lXR < 1 1 R R W ..+.O.^ 3 4 '.].{.).}.~.@XE.R.j.h.h.J.L.R. XoXsXsX",
"zX4X< 3 ! ! ! ^ X.@.#.^ 4 2 B.].).}.U.@XXXOXoXE.j.h.T.L. X.X>XsXsX",
"lXlX~ 3 3 4 ~ ^ #.O.#.~ 2 : B.Z.).I.@X#XXXOXoXE.R.T.T.R.XXOXsXsXsX",
"lXzX9X, , , Q ~ #.#.] 4 : N.B.Z.I.~.#XXX Xb.b.g.j.R.R. X.XtXsXsXsX",
"lXlXzX*X; A., Q #.' 4 2 N.N.Z.C.U.#X+Xn.b.x.f.f.g.R. X.X>XsXdXsXsX",
"lXlXlXlX*XA.A.%X] 3 2 : N.B.C.I.~.#X.Xc.x.a.a.f.g.b..X;XsXdXsXsXsX",
"lXlXlXlXlX:XA.Q ] 4 N.N.N.Z.V.W.OX.Xn.x.z.a.a.f.b. X>XdXdXdXsXsXsX",
"lXlXlXlXjXlX9X%X,X'.].B.B.V.K.E.XX.Xc.z.z.l.z.x.b.uXfXdXdXdXsXsXsX",
"lXlXlXjXjXjXjXhX9X1X{.{.V.K.P. Xn.c.x.l.k.l.v.>XpXfXfXdXdXdXsXsXsX",
"lXlXlXlXjXjXjXjXjXhX9X8XQ.W. X Xc.c.z.z.v.>XpXfXgXgXgXdXdXdXsXsXsX"
};
