/* XPM */
static char *ec89996b954a4adac5fcc685c879343aqWDNEymoBCxQMAhb[] = {
/* columns rows colors chars-per-pixel */
"32 32 180 2 ",
"   c #00001E",
".  c #010024",
"X  c #00002D",
"o  c #020133",
"O  c #0B0739",
"+  c #05093D",
"@  c #0C0A3C",
"#  c #110938",
"$  c #1D0E3B",
"%  c #2E153B",
"&  c #521D34",
"*  c #0C0F41",
"=  c #0D1042",
"-  c #161747",
";  c #171B4B",
":  c #261D49",
">  c #1D2756",
",  c #242B58",
"<  c #293460",
"1  c #2E3C66",
"2  c #323660",
"3  c #402444",
"4  c #763C4A",
"5  c #3A476E",
"6  c #394770",
"7  c #5A4C6B",
"8  c #45577C",
"9  c #614D6A",
"0  c #705770",
"q  c #BD6058",
"w  c #F86947",
"e  c #EA6E55",
"r  c #F46E50",
"t  c #E2755E",
"y  c #F17256",
"u  c #FB7655",
"i  c #F27659",
"p  c #FC7B5B",
"a  c #D47362",
"s  c #EC7B62",
"d  c #F27D61",
"f  c #FF815E",
"g  c #DE8B7C",
"h  c #ED846C",
"j  c #FD8162",
"k  c #F0856C",
"l  c #FF8D6F",
"z  c #EB8E77",
"x  c #FE9277",
"c  c #4F658A",
"v  c #56678A",
"b  c #546A8C",
"n  c #5C6E90",
"m  c #5D799C",
"M  c #667795",
"N  c #647E9D",
"B  c #877B8F",
"V  c #5C80A4",
"C  c #6F89A7",
"Z  c #748EAB",
"A  c #7692AC",
"S  c #7191B1",
"D  c #7FA0BD",
"F  c #7BCAE9",
"G  c #72DEE8",
"H  c #73C5F2",
"J  c #7FDAF3",
"K  c #48EFF6",
"L  c #79E7ED",
"P  c #7BEAEC",
"I  c #6BEEF3",
"U  c #71E4F8",
"Y  c #60F0F9",
"T  c #92989C",
"R  c #A18C9A",
"E  c #BB959B",
"W  c #9D93A2",
"Q  c #8CACBF",
"!  c #DE9C8F",
"~  c #CF9892",
"^  c #E59A8A",
"/  c #DAA395",
"(  c #C7ABAC",
")  c #CEBEB8",
"_  c #D4BCB8",
"`  c #E0BFBD",
"'  c #81A5C4",
"]  c #8BB3CE",
"[  c #92B7CB",
"{  c #82B3D3",
"}  c #8CBCD6",
"|  c #AABDC6",
" . c #BFBFC9",
".. c #8ABFE7",
"X. c #C1BBC1",
"o. c #98C4D7",
"O. c #91C2DB",
"+. c #9ECFDD",
"@. c #B7C0C9",
"#. c #A0CDD5",
"$. c #A4CADC",
"%. c #B2C7D8",
"&. c #A6D4D7",
"*. c #A4D3DC",
"=. c #A9D6DC",
"-. c #ACDBDD",
";. c #B9D7DC",
":. c #B2DEDD",
">. c #B4E1DF",
",. c #B9E7DF",
"<. c #8BCBE9",
"1. c #99C7E6",
"2. c #94C3EB",
"3. c #9AC6EC",
"4. c #97CBEA",
"5. c #9BCBEC",
"6. c #94D2E4",
"7. c #9DD4E4",
"8. c #9CD1ED",
"9. c #98D6EE",
"0. c #85CCF2",
"q. c #95CBF2",
"w. c #9ECBF2",
"e. c #84D4F2",
"r. c #8BDAF5",
"t. c #93D6F3",
"y. c #9CD1F0",
"u. c #98DAF1",
"i. c #A3CDE5",
"p. c #ABCEE2",
"a. c #A3CEEE",
"s. c #A4D5E3",
"d. c #A9D5E2",
"f. c #A5D9E3",
"g. c #ACDBE3",
"h. c #A4D3EC",
"j. c #ABD5EE",
"k. c #A5DFED",
"l. c #ADD9EC",
"z. c #B1DDE4",
"x. c #B6D8E8",
"c. c #B2DDEA",
"v. c #A4CDF3",
"b. c #A9CCF3",
"n. c #A7D1F1",
"m. c #A9D2F0",
"M. c #A7DCF4",
"N. c #ABDCF4",
"B. c #B2DDF1",
"V. c #83E6ED",
"C. c #96E6EB",
"Z. c #9AE5EB",
"A. c #94ECEA",
"S. c #84E5F7",
"D. c #AFE4E0",
"F. c #A4EAE5",
"G. c #ACECE5",
"H. c #ABE5EB",
"J. c #B5E3E4",
"K. c #B9E6E5",
"L. c #B3EBE4",
"P. c #BCEBE3",
"I. c #B4E2EA",
"U. c #BAE5E9",
"Y. c #A7E2F7",
"T. c #B4E3F4",
"R. c #BCEBF4",
"E. c #BBEBF9",
"W. c #B8E8FA",
"Q. c #C7C7C4",
"!. c #CAD4DB",
"~. c #E8C7C2",
"^. c #FBD5CC",
"/. c #E6D6D7",
"(. c #C0EEE3",
"). c #C7E7EB",
"_. c #D7E4E4",
"`. c #C3F2E2",
"'. c #CAF8E3",
"]. c #C1F1F5",
/* pixels */
"P.P.P.P.K.K.K.K.K.K.J.I.I.c.c.c.c.l.l.l.l.j.j.j.m.m.m.m.v.v.v.v.",
"P.P.P.K.P.K.K.K.K.K.K.I.I.c.c.c.c.c.l.l.l.j.j.j.m.m.m.m.v.v.v.v.",
"P.P.:.&.J.K.K.K.K.H.Z.J.I.c.c.c.l.l.l.l.l.j.j.j.m.m.m.m.v.v.v.v.",
"P.(.#.o.-.P.K.K.K.Z.L K.I.c.I.E.E.T.l.l.l.j.j.j.m.m.m.m.v.v.v.v.",
"`.-.&.:.K.K.K.P.K.g.s.U.c.I.*.M b [ T.l.l.j.j.j.m.m.m.m.v.v.v.v.",
"`.&.K.`.K.K.K.*.J.g.7.U.I.I.1   $ * o.B.j.j.j.j.m.m.m.m.v.v.v.v.",
"P.&.K.P.K.P.g.} z.c.7.J.R.Q : 7 ` 9 Z W.h.j.j.j.m.m.m.m.v.v.v.v.",
"{ &.K.P.P.J.*.K.P.s.g.J.].N 0 ^.^.E n E.h.j.j.j.m.m.m.m.v.v.v.v.",
"K.&.K.P.P.=.J.P.d.s.U.c.R.A + R ~.2 N W.x.x.j.j.m.m.m.m.v.v.v.v.",
"`.&.K.P.P.=.K.g.d.P.J.I.I.I.| _ ^.@.B.l././.m.j.m.m.m.m.v.v.v.v.",
"} &.K.P.P.d.J.g.J.6.J.J.I.) j l x p ! N.~.!.m.j.m.m.m.m.v.v.v.v.",
":.&.K.P.P.g.J.g.g.<.J.I.I.z r p u u e X.k  .M.j.m.m.m.m.v.v.v.v.",
"'.&.K.P.P.g.J.g.J.(.J.I.x.k y p p p d s s %.m.a.m.m.m.m.v.v.v.v.",
"O.&.K.P.P.g.J.g.c.<.J.I.;.d i p p j ^ w g m.h.J m.m.m.m.v.v.v.v.",
"&.=.>.P.P.=.J.g.J.s.J.I.;.s t p f u ( ^ ( N.h.r.m.m.m.m.v.v.v.v.",
"`.K.-.P.-.-.K.d.K.K.J.I.Q.p 3 % 4 & v E.h.j.j.y.j.m.m.m.v.v.v.v.",
"P.(.K.>.-.K.s.J.K.J.J.H.Q.i $ o O X 1 l.l.j.j.9.m.m.m.m.v.w.Y r.",
"P.P.K.-.,.F 7.P.K.K.g.k.) a + o # X > h.l.j.j.8.m.m.m.m.b.q.U t.",
"P.`.:.J.J.K.K.K.K.s.g.I._.W o o O o ; s.l.j.j.8.m.m.m.m.5.q.b.v.",
"`.=.-.D.J.J.K V.f.f.U.7.!.B o O - X = i.N.j.j.8.8.m.m.5.q.v.v.v.",
":.-.K.*.K.L.I C.J.K.d.f.).M . = < X @ $.B.l.j.j.8.n.h.5.v.v.v.v.",
"P.,.&.K.P.J.g.g.f.s.g.g.Y.b . ; c X + ] M.t.j.j.h.y.5.v.v.v.v.2.",
"-.&.K.(.-.g.K.K.J.K.g.+.R.v . , A o O ' u.e.j.j.m.8.5.v.v.v.w.w.",
"D.L.`.-.=.P.g.+.*.+.s.z.j.8   6 ] O o D M.5.l.m.5.a.4.v.v.v.v.q.",
"P A.>.=.(.-.d.J.g.J.4...U.5   v I.* X S N.5.5.3.3.a.4.m.q.H v.e.",
"L.L.g.K.-.=.P.K.K.P.s.8.s.> . C R., . C M.h.h.h.h.4.m.m.v.2.w.w.",
"P A.>.J.=.K.K.K.g.g.z.U.O.+ o [ R.5   m T.1.h.5.5.m.m.m.v.2.v.w.",
"G.L.>.J.g.P.K.*.d.K.d.l.[ o - s.E.M . V Y.i.5.5.a.3.a.m.v...v.0.",
"L A.:.J.-.J.=.g.K.K.J.g.f.q T S.S.6.e ~ p.4.1.3.3.2.a.m.2.3.3.q.",
"F.G.:.K.=.O.+.z.K.K.J.h.Q.p / u.9.s.h i h @.5.5.5...v.2.3.3.2.v.",
"G A.:.K.=.O.+.g.K.J.U.s.$.;.=.f.h.h.d.p.$.d.h.h.h.a.2.3.5.2.v.v.",
"P.(.>.K.-.*.*.g.K.K.J.I.g.f.j.h.h.h.h.h.h.h.h.a.a.5.5.3.2.b.v.v."
};
