/* XPM */
static char *e9ce291044174db9f62210f53d724726BxOF55CywDW98DRu[] = {
/* columns rows colors chars-per-pixel */
"32 32 110 2 ",
"   c #7BCAE9",
".  c #72DEE8",
"X  c #73C5F2",
"o  c #7FDDF3",
"O  c #48EFF6",
"+  c #7DE6EE",
"@  c #75E8EC",
"#  c #7BEAEC",
"$  c #6AEDF4",
"%  c #7AE7F2",
"&  c #71EBF3",
"*  c #71E4F8",
"=  c #60F1F9",
"-  c #82B3D3",
";  c #8CBCD6",
":  c #80BFE5",
">  c #8FBEE7",
",  c #8FBFEA",
"<  c #90C1D6",
"1  c #9BC7D5",
"2  c #91C3DD",
"3  c #9FCFDD",
"4  c #A0CDD5",
"5  c #A6D4D7",
"6  c #A4D3DC",
"7  c #A8D6DC",
"8  c #ACDBDD",
"9  c #B2DEDD",
"0  c #B4E1DF",
"q  c #B9E7DF",
"w  c #8CCCE7",
"e  c #8ACAEA",
"r  c #96CCE4",
"t  c #9BCCE5",
"y  c #94C3EB",
"u  c #9AC6EC",
"i  c #96CBEF",
"p  c #9CCCEB",
"a  c #86DBEF",
"s  c #97D1E7",
"d  c #9DD2E3",
"f  c #94D4EC",
"g  c #9CD2EC",
"h  c #96D9ED",
"j  c #9AD9EC",
"k  c #85CCF2",
"l  c #95CBF2",
"z  c #9ECBF2",
"x  c #85D5F2",
"c  c #83DFF1",
"v  c #8BDAF5",
"b  c #94D4F5",
"n  c #9CD1F0",
"m  c #92D9F1",
"M  c #A2CEED",
"N  c #A3D4E4",
"B  c #A9D7E2",
"V  c #A6D9E4",
"C  c #ACDBE3",
"Z  c #A4D3EB",
"A  c #ABD5EE",
"S  c #A4D9EA",
"D  c #ADD9EC",
"F  c #B0DDE4",
"G  c #B9DFE7",
"H  c #B0D6ED",
"J  c #B1DDEA",
"K  c #A4CDF3",
"L  c #A9CCF3",
"P  c #A7D0F1",
"I  c #A9D2F0",
"U  c #83E6ED",
"Y  c #8AE4EE",
"T  c #97E4EC",
"R  c #9AE5EB",
"E  c #94ECEA",
"W  c #85E3F1",
"Q  c #8FE1F0",
"!  c #AFE4E0",
"~  c #A4EAE5",
"^  c #ACECE5",
"/  c #A8E4E8",
"(  c #B4E3E3",
")  c #B3E1E5",
"_  c #B7E1E7",
"`  c #B4E5E4",
"'  c #B7E4E4",
"]  c #B8E6E1",
"[  c #B9E3E6",
"{  c #B8E6E4",
"}  c #BDE4E5",
"|  c #B3EBE4",
" . c #BAE8E2",
".. c #BDEBE2",
"X. c #BCEBE3",
"o. c #BFEEE1",
"O. c #BAE8E4",
"+. c #BDEBE4",
"@. c #BDECE4",
"#. c #B3E1E8",
"$. c #B4E2E8",
"%. c #B8E3E8",
"&. c #B9E4E9",
"*. c #C0EEE2",
"=. c #C2E9E5",
"-. c #C0EFE4",
";. c #C1F0E2",
":. c #C5F3E3",
">. c #C6F4E2",
",. c #CAF8E3",
/* pixels */
"o.o..... .O.{ { { ' _ $.$.J J J J D D D D A A A I I I I K K K K ",
"o.o.o. .+.O.{ { ' [ [ $.$.J J J J J D D D A A A I I I I K K K K ",
"o.o.9 5 ( O.{ { { / R _ $.J J J J D D D D A A A I I I I K K K K ",
"o.*.4 1 8 +.{ ' } R + [ #.J J J J J D D D A A A I I I I K K K K ",
";.8 5 9  .O.{ +.{ C S %.#.J J J J D D D D A A A I I I I K K K K ",
";.5  .-. .O.{ 6 ) C d &.#.J J J J J D D D A A A I I I I K K K K ",
"o.5 ] .. .+.C ; F F d &.#.J J J J D D D D A A A I I I I K K K K ",
"- 5 ] ..+.) 6 ' +.N C $.$.J J J J J D D D A A A I I I I K K K K ",
"] 5 ] ..@.6 ) +.B N &.$.$.J J J J D D D D A A A I I I I K K K K ",
">.5 ] ..+.7 ' C B +._ $.$.J J J J J D D D A A A I I I I K K K K ",
"; 5 ] ..+.B _ C ) s _ $.$.J J J J J D D D A A A I I I I K K K K ",
"9 5 ] ..+.C ( C C e _ $.$.J J J J D D D D A A A I I I I K K K K ",
",.5 ] ..+.C ( C _ =._ $.$.J J J D J D D D A A M I I I I K K K K ",
"< 5 ] ..+.C ( C F w _ $.G & $ W = D J D D A S o I I I I K K K K ",
"5 7 0 o.@.6 ( C ) S _ $.G Y W T % D D D D A S v I I I I K K K K ",
":. .8 o.8 8 { 6 { { _ $.$.D D J S J J D D A A n Z I I I K K K K ",
"o.*.] 0 8 ' N ) { _ _ ) J S S D S J h S D A A f I I I I K z = v ",
"o.o.( 8 ]   s +.' { C C C V J D S J j S D A A g I I I I L l * b ",
"o.*.9 ) ) { { } { N V &.C C D Z Z J h S D A A g I I I I p l L K ",
";.7 8 ! ) ' O U V V &.S B C S D J J f S D A A g g I I p i K K K ",
"9 8  .6 ] | $ T _ { B C $.D D D D D D D D H A A g P Z p K K K K ",
"o.q 5  .@.) C C V N C C d N S Z Z Z g M S m A A Z n p K K K K y ",
"8 5 ] -.8 C ' ' _ _ C d F J J J D D J Z f x A A I g p K K K z z ",
"! | ;.8 7 @.C 3 6 3 6 F N S S N N p Z D Z p D I p M p K K K z l ",
"# E 0 6 -.8 B ) C ( r : [ %.J J J D t A Z p p u u M p I l X K x ",
"| ..C  .8 7 +.{ { +.S g N t $.J J D t A p A Z Z Z p I I K y z z ",
"# E 0 ( 7 O.O.{ C C F { r t $.J J J Z g Z u Z p p I I I K y K z ",
"^ | 0 ) C +.O.6 B ' B B C F J D D D D g p Z p p M u M I K , K k ",
"@ E 9 ( 8 ) 7 C O.{ _ C V F Q c W a o D Z t t u u y M I y u u l ",
"~ ^ 9 ] 6 2 3 F { ' _ N J N g j j j j g Z M p p p > K y u u y K ",
". E 9 ] 6 2 3 C { _ &.N N J V S Z Z Z Z Z A Z Z Z M y u p y K K ",
"o.*.0 ] 8 6 6 F { ' $.$.B S D Z Z Z Z Z Z Z Z M M p p u y L K K "
};
