/* XPM */
static char *_b67504f7e3647ef913e8aa8d78ff3761ZMyno1T2mVRI4Pq[] = {
/* columns rows colors chars-per-pixel */
"33 32 171 2 ",
"   c #554F51",
".  c #676365",
"X  c #6A666B",
"o  c #6E6B6F",
"O  c #706E73",
"+  c #76757B",
"@  c #79797B",
"#  c #7D7D83",
"$  c #7B7F89",
"%  c #807F83",
"&  c #7F8187",
"*  c #7F8189",
"=  c #7D8595",
"-  c #818184",
";  c #82848B",
":  c #86888E",
">  c #898A8F",
",  c #858791",
"<  c #868992",
"1  c #8A8D94",
"2  c #848D9B",
"3  c #8B8F99",
"4  c #8D9196",
"5  c #8D939B",
"6  c #909297",
"7  c #91969D",
"8  c #95999E",
"9  c #8E96A0",
"0  c #8F9DA5",
"q  c #9197A0",
"w  c #949BA4",
"e  c #999EA3",
"r  c #959EAA",
"t  c #989FAB",
"y  c #9CA1A5",
"u  c #95A0AC",
"i  c #9BA3AC",
"p  c #9AACAE",
"a  c #9AB5AF",
"s  c #96A3B3",
"d  c #9DA6B0",
"f  c #9EA9B3",
"g  c #9DACBB",
"h  c #A1A6AB",
"j  c #A3A9AD",
"k  c #A3ACB3",
"l  c #A9AEB2",
"z  c #A3AEB9",
"x  c #A5B2B6",
"c  c #ABB2B5",
"v  c #A6B2BB",
"b  c #AAB4BC",
"n  c #A3B8BF",
"m  c #AEB8BF",
"M  c #B1B6B9",
"N  c #B2B9BD",
"B  c #9CBCDD",
"V  c #A3B5C4",
"C  c #AAB6C1",
"Z  c #ADBAC4",
"A  c #A6B9CA",
"S  c #ACBCCA",
"D  c #B3BDC4",
"F  c #B1BEC9",
"G  c #A2BCD0",
"H  c #A1BEDB",
"J  c #A8C2C7",
"K  c #ADC9C7",
"L  c #ABC3C8",
"P  c #B6C0C6",
"I  c #BBC2C5",
"U  c #B4C2CC",
"Y  c #BBC6CC",
"T  c #B2CFCC",
"R  c #BCC8CE",
"E  c #B4D2CD",
"W  c #ACC2D2",
"Q  c #A7CCD9",
"!  c #B6C6D1",
"~  c #B9C7D1",
"^  c #B7C8D5",
"/  c #BCCBD4",
"(  c #B3CAD9",
")  c #BECFD9",
"_  c #B3D9D3",
"`  c #BFD0DA",
"'  c #BDDCDC",
"]  c #BBE7DF",
"[  c #9CC3EF",
"{  c #9EC6F1",
"}  c #A1C4E0",
"|  c #ABCAE5",
" . c #AFD1E1",
".. c #ABD5ED",
"X. c #AEDAED",
"o. c #BCD4E3",
"O. c #B2DBE7",
"+. c #BADEE1",
"@. c #B1DCEB",
"#. c #BCDBE9",
"$. c #A0C7F2",
"%. c #A2CBF4",
"&. c #A4CDF8",
"*. c #A7D0F3",
"=. c #A9D3F2",
"-. c #B5E2E7",
";. c #BCE5E6",
":. c #BDEBE3",
">. c #B4E1EB",
",. c #BAE3E9",
"<. c #B8E8E8",
"1. c #BBEBEA",
"2. c #BEEDE8",
"3. c #C1C9CD",
"4. c #C1CACE",
"5. c #C4CBCD",
"6. c #C4CDD0",
"7. c #C4CED3",
"8. c #C7D2D5",
"9. c #CBD3D6",
"0. c #C0D1DA",
"q. c #C1D5DC",
"w. c #C3D4DD",
"e. c #CBD6DB",
"r. c #C9D7DD",
"t. c #CCD7DC",
"y. c #CFD8DB",
"u. c #CFD8DC",
"i. c #D1DADC",
"p. c #D2DCDF",
"a. c #C0E3DD",
"s. c #C4D6E0",
"d. c #C5D7E1",
"f. c #C6D9E2",
"g. c #C2DCE5",
"h. c #C5DEE4",
"j. c #C9DCE5",
"k. c #C0DDEA",
"l. c #C4DCEC",
"z. c #CCDFE8",
"x. c #D2DEE2",
"c. c #C8E3E6",
"v. c #C5E8E5",
"b. c #C3E4ED",
"n. c #CDE2EB",
"m. c #C8E7EE",
"M. c #D3E0E5",
"N. c #DDE6E6",
"B. c #D1E5ED",
"V. c #D2E5ED",
"C. c #DEE7E8",
"Z. c #DCE7EA",
"A. c #D6EAEF",
"S. c #DEE8E8",
"D. c #D3F0EF",
"F. c #C2E2F0",
"G. c #CFE7F4",
"H. c #D4E7F0",
"J. c #D3E8F1",
"K. c #D5EAF2",
"L. c #D8ECF3",
"P. c #D9EDF5",
"I. c #DAEEF4",
"U. c #DDF1F5",
"Y. c #E2ECED",
"T. c #E0ECEF",
"R. c #E1F3F5",
"E. c #EAF4F4",
"W. c #EAF5F6",
"Q. c #EFFAFA",
"!. c #F0FCFD",
/* pixels */
":.] :.2.<.<.<.<.<.-.-.-.-.@.@.@.X.X.......=.=.=.=.=.*.%.%.%.&.%.%.",
"f q.h.0 5 L L J n g.m.,.O.>.>.@.@. .#.k.o.W ( | ..*.*.%.%.%.B | &.",
"U P.~ < r z 5 i w 5 z C v V Q O.U R ! / F k Z d w G =.%...( j F $.",
"P / ! k k :   + b / r.4.k k 7 Z / c w ; d r b N e y ~ V 5 4 c ` { ",
"1 D y.S.R g c o - e j 1 7 e y N P y l P 7 i i < w k P y + : i S %.",
"j w # 5.P m p.8 h - - I c ; > b / U ~ x 7 8 e ; t z F C k k k z $.",
"N M C.E.1 6.t.9 d k M j < k c v ! U U c R 6.R w e 8 # w Z ` U g $.",
"! S / T.q 6.b C j.d.S d i e M i z d.F q.V.P.K.0.e e z z.J.U w ( &.",
"K.H.) f e D i q.f.V.j./ k k c i F q.C U f.f.k w k b V.V.v w f.G.$.",
"A.K.V.i 1 i d / V.q.r 4 > + b z Z U ! v S b k f k d.j.d 5 k / o.{ ",
"V.j.v ; < R i.d / i b y + 5 Y r m l 5 < t j e k i U i u k 4 b A [ ",
"Z t 7 > i q.N l i 1 y.!.i C R : P C.k t 1 - 6 8 h w i v k i Z S [ ",
"x c 1 ; i Z c e 8.z P c D 5 k 1 i E.~ z : X 5 z D e.z F k k Z o.%.",
"a.8 + k v k ~ b I 6.d M u.k 4 j u 8.Z.i k D b ` C v P E.x.1 m l.%.",
"T 7 i q.J.U.P.V.V.q.b U / Z v x m p.T.b 5 Z z.P.n.C e P R v F W { ",
"E w k D q.V.A.P.K.K.j.U U ~ Z b P / F b Z j.V.P.F , r F k U U V [ ",
"a 5 0.Z F d.V.V.V.V.d.U ~ Z C F b ~ j.V.P.K.j./ f # k 0.5 F v r %.",
"E D z.U A q.J.n.V.0.v C F C k F F N.7 b / q.v C Y # 7 ! w U w $ &.",
"K U P.U v j.v U U 5 5 i f F b v 4.Q.e + < 7 < 7 h y i U r F : r %.",
"' z.K.f.U / 7 1 ; h r.b r 5 l Z 5 b x.h + U v @ . ; k Z j Z 5 2 %.",
"c.V.V.U $ # 7 # w / 9.D r . # k i i t m + 8 e 7 > 1 R k b y # = %.",
"V.z.v ; 7 z i c w f w 5 < < i f f r C f < f 7 # 7 m T.8.l N i s %.",
"v < # . # < w P w w i k F f.j.Z i ! F V d.b ; t c v Z 6.N 7 N u %.",
"p Z / : + i r Y e 5 v j.P.P.V.U / q.z e b 7 k w v n.K.j.f.~ 4 r %.",
"_ k I D y 5 5 1 U j.n.V.V.V.d.U f.j.i i M R j 8 U K.j.A ^ K.b V %.",
":.Z R N 4.w ; k f.V.n.V.K.j.C U f./ u.P h k f P F U U ~ d.q.` V $.",
"v.H.C k i 1 z x.z 0.V.f.F i 5 d i k y D Y k k c v p.l 5 < < 5 u $.",
"D.q.v ~ 5 i M.4.; i w i w * 1 ; # h 1 P N m i 7 i v b v m N : u &.",
"A.V.P.) v w / 9.j k Y r # ; q : i k b b i b i t q.Z ; z U D # / %.",
"K.d.F U U 7 h D R k l < 5 r 1 7 z 0.V.V.0.Y c i k 7 1 < < & % d %.",
"k 5 5 7 v i Y +.;.n./ P Z w O ; 0.V.A.U.R.V.F P k y 7 2 2 w A H %.",
"p , b y # k +.<.-.,.b.b.c.S 3 d F d.m.F.b.L.U.U I ~ } *.*.%.%.&.%."
};
